<svg width="26" height="26" viewBox="0 0 26 26" fill="none" xmlns="http://www.w3.org/2000/svg">
<path d="M22.7347 4.78573C22.7107 4.38956 22.5424 4.0159 22.2618 3.73525C21.9811 3.4546 21.6075 3.28636 21.2113 3.26229C19.9336 3.18612 16.6684 3.30291 13.9587 6.01159L13.4763 6.5001H7.55216C7.33795 6.49889 7.12563 6.54029 6.92756 6.62189C6.72949 6.70349 6.54962 6.82366 6.39841 6.97541L2.91482 10.461C2.70118 10.6745 2.55127 10.9433 2.48191 11.2373C2.41255 11.5313 2.42648 11.8387 2.52215 12.1252C2.61782 12.4117 2.79143 12.6658 3.02351 12.8591C3.25558 13.0524 3.53694 13.1772 3.83599 13.2195L7.7431 13.7649L12.2332 18.2549L12.7786 22.1641C12.8205 22.4632 12.9453 22.7445 13.1387 22.9764C13.3322 23.2083 13.5867 23.3814 13.8734 23.4763C14.0404 23.5321 14.2153 23.5605 14.3914 23.5606C14.6046 23.561 14.8157 23.5192 15.0127 23.4376C15.2097 23.356 15.3886 23.2363 15.539 23.0853L19.0247 19.6017C19.1764 19.4505 19.2966 19.2706 19.3782 19.0725C19.4598 18.8745 19.5012 18.6621 19.5 18.4479V12.5238L19.9844 12.0393C22.6941 9.32963 22.8109 6.0644 22.7347 4.78573ZM7.55216 8.1251H11.8513L7.83654 12.1389L4.06248 11.6128L7.55216 8.1251ZM15.1094 7.16534C15.8902 6.37979 16.8295 5.76987 17.8648 5.37633C18.9001 4.98279 20.0074 4.81468 21.1128 4.88323C21.184 5.98922 21.0176 7.09764 20.6249 8.134C20.2321 9.17036 19.6221 10.1106 18.8358 10.8917L13 16.7254L9.27466 13.0001L15.1094 7.16534ZM17.875 18.4479L14.3883 21.9376L13.8612 18.1625L17.875 14.1488V18.4479ZM10.3431 19.4128C9.88607 20.4142 8.35755 22.7501 4.06248 22.7501C3.84699 22.7501 3.64032 22.6645 3.48795 22.5121C3.33558 22.3598 3.24998 22.1531 3.24998 21.9376C3.24998 17.6425 5.58591 16.114 6.58732 15.656C6.68442 15.6117 6.78928 15.587 6.89593 15.5832C7.00258 15.5795 7.10893 15.5967 7.2089 15.6341C7.30886 15.6714 7.4005 15.7281 7.47856 15.8009C7.55663 15.8736 7.6196 15.9611 7.66388 16.0581C7.70816 16.1552 7.73288 16.2601 7.73664 16.3668C7.74039 16.4734 7.7231 16.5798 7.68575 16.6797C7.6484 16.7797 7.59173 16.8713 7.51897 16.9494C7.44621 17.0275 7.35879 17.0904 7.26169 17.1347C6.60865 17.4323 5.16748 18.39 4.91357 21.0865C7.61005 20.8326 8.56982 19.3914 8.86537 18.7384C8.90965 18.6413 8.97262 18.5539 9.05068 18.4811C9.12875 18.4083 9.22038 18.3517 9.32035 18.3143C9.42032 18.277 9.52666 18.2597 9.63331 18.2634C9.73996 18.2672 9.84483 18.2919 9.94193 18.3362C10.039 18.3805 10.1264 18.4434 10.1992 18.5215C10.272 18.5996 10.3286 18.6912 10.366 18.7912C10.4033 18.8911 10.4206 18.9975 10.4169 19.1041C10.4131 19.2108 10.3884 19.3157 10.3441 19.4128H10.3431Z" fill="#2F27CE"/>
</svg>
