<svg width="20" height="20" viewBox="0 0 20 20" fill="none" xmlns="http://www.w3.org/2000/svg">
<path d="M20 1.66661V18.3327C20 18.7747 19.8244 19.1987 19.5119 19.5112C19.1993 19.8238 18.7754 19.9993 18.3334 19.9993H10.8335C10.6125 19.9993 10.4006 19.9116 10.2443 19.7553C10.088 19.599 10.0002 19.387 10.0002 19.166C10.0002 18.945 10.088 18.7331 10.2443 18.5768C10.4006 18.4205 10.6125 18.3327 10.8335 18.3327H18.3334V1.66661H1.66709V11.6663C1.66709 11.8873 1.5793 12.0992 1.42302 12.2555C1.26674 12.4118 1.05479 12.4996 0.833777 12.4996C0.612769 12.4996 0.400812 12.4118 0.244535 12.2555C0.0882588 12.0992 0.000463316 11.8873 0.000463316 11.6663V1.66661C0.000463316 1.2246 0.176054 0.80069 0.488607 0.488139C0.801161 0.175589 1.22507 0 1.66709 0H18.3334C18.7754 0 19.1993 0.175589 19.5119 0.488139C19.8244 0.80069 20 1.2246 20 1.66661ZM9.75649 12.7433C9.6791 12.6659 9.58719 12.6044 9.48603 12.5625C9.38486 12.5205 9.27643 12.4989 9.16692 12.4989C9.05741 12.4989 8.94897 12.5205 8.84781 12.5625C8.74664 12.6044 8.65474 12.6659 8.57735 12.7433L3.33372 17.988L1.42335 16.0766C1.34592 15.9991 1.25401 15.9377 1.15285 15.8958C1.05169 15.8539 0.943271 15.8324 0.833777 15.8324C0.724284 15.8324 0.615863 15.8539 0.514704 15.8958C0.413546 15.9377 0.321631 15.9991 0.244208 16.0766C0.166784 16.154 0.105369 16.2459 0.0634675 16.3471C0.0215663 16.4482 0 16.5566 0 16.6661C0 16.7756 0.0215663 16.884 0.0634675 16.9852C0.105369 17.0863 0.166784 17.1783 0.244208 17.2557L2.74415 19.7556C2.82154 19.8331 2.91345 19.8945 3.01461 19.9365C3.11577 19.9784 3.22421 20 3.33372 20C3.44323 20 3.55167 19.9784 3.65283 19.9365C3.75399 19.8945 3.8459 19.8331 3.92329 19.7556L9.75649 13.9225C9.83397 13.8451 9.89543 13.7532 9.93737 13.652C9.9793 13.5508 10.0009 13.4424 10.0009 13.3329C10.0009 13.2234 9.9793 13.115 9.93737 13.0138C9.89543 12.9126 9.83397 12.8207 9.75649 12.7433Z" fill="#2F27CE"/>
</svg>
